<svg xmlns="http://www.w3.org/2000/svg" viewBox="0 0 24 24" fill="none" stroke="currentColor" stroke-width="1.5" stroke-linecap="round" stroke-linejoin="round"><circle cx="13.5" cy="6.5" r=".5" fill="currentColor"/><circle cx="17.5" cy="10.5" r=".5" fill="currentColor"/><circle cx="8.5" cy="7.5" r=".5" fill="currentColor"/><circle cx="6.5" cy="12.5" r=".5" fill="currentColor"/><path d="M12 2.5C6.5 2.5 2.5 6.5 2.5 12s4 9.5 9.5 9.5c.75 0 1.5-.5 1.5-1.5 0-.5-.25-.75-.5-1s-.5-.5-.5-1a1.5 1.5 0 0 1 1.5-1.5h2c3 0 5.5-2.5 5.5-5.5C21.5 6 17.5 2.5 12 2.5z"/></svg>
